<?xml version="1.0" encoding="UTF-8" standalone="no"?>
<svg
   xmlns:dc="http://purl.org/dc/elements/1.1/"
   xmlns:cc="http://creativecommons.org/ns#"
   xmlns:rdf="http://www.w3.org/1999/02/22-rdf-syntax-ns#"
   xmlns:svg="http://www.w3.org/2000/svg"
   xmlns="http://www.w3.org/2000/svg"
   xmlns:sodipodi="http://sodipodi.sourceforge.net/DTD/sodipodi-0.dtd"
   xmlns:inkscape="http://www.inkscape.org/namespaces/inkscape"
   enable-background="new 0 0 1000 600"
   height="36"
   id="Shape_1_9_"
   overflow="visible"
   version="1.1"
   viewBox="0 0 130 36"
   width="130"
   xml:space="preserve"
   sodipodi:docname="logo.svg"
   style="overflow:visible"
   inkscape:version="0.92.3 (2405546, 2018-03-11)"><metadata
     id="metadata98"><rdf:RDF><cc:Work
         rdf:about=""><dc:format>image/svg+xml</dc:format><dc:type
           rdf:resource="http://purl.org/dc/dcmitype/StillImage" /><dc:title></dc:title></cc:Work></rdf:RDF></metadata><defs
     id="defs96"><filter
       inkscape:label="Black Light"
       inkscape:menu="Color"
       inkscape:menu-tooltip="Light areas turn to black"
       style="color-interpolation-filters:sRGB"
       id="filter2218"><feColorMatrix
         type="luminanceToAlpha"
         result="result2"
         id="feColorMatrix2210" /><feComposite
         in2="SourceGraphic"
         operator="arithmetic"
         in="result2"
         k3="2"
         result="result4"
         id="feComposite2212"
         k1="0"
         k2="0"
         k4="0" /><feBlend
         in="result4"
         mode="multiply"
         result="result3"
         in2="result2"
         id="feBlend2214" /><feComposite
         in2="SourceGraphic"
         operator="in"
         in="result3"
         id="feComposite2216" /></filter></defs><sodipodi:namedview
     pagecolor="#ffffff"
     bordercolor="#666666"
     borderopacity="1"
     objecttolerance="10"
     gridtolerance="10"
     guidetolerance="10"
     inkscape:pageopacity="0"
     inkscape:pageshadow="2"
     inkscape:window-width="1366"
     inkscape:window-height="713"
     id="namedview94"
     showgrid="false"
     inkscape:zoom="2.4041631"
     inkscape:cx="132.22665"
     inkscape:cy="-14.783547"
     inkscape:window-x="0"
     inkscape:window-y="27"
     inkscape:window-maximized="1"
     inkscape:current-layer="Shape_1_9_"
     showguides="false" /><g
     inkscape:groupmode="layer"
     id="layer1"
     inkscape:label="Layer 1"
     style="display:none"
     transform="translate(0,2)" /><style
     id="style715"
     type="text/css">
	.st0{fill:#2FBBF4;}
	.st1{fill:#2F9DC4;}
	.st2{fill:none;stroke:#0A2933;stroke-linejoin:round;}
	.st3{fill:none;stroke:#FFFFFF;stroke-linecap:round;stroke-linejoin:round;stroke-dasharray:1,2,6,2,3;}
</style><style
     id="style737"
     type="text/css">
	.st0{fill:#20BAF7;}
	.st1{fill:#2F9DC4;}
	.st2{fill:none;stroke:#0A2933;stroke-linejoin:round;}
	.st3{fill:none;stroke:#FFFFFF;stroke-linecap:round;stroke-linejoin:round;stroke-dasharray:1,2,6,2,3;}
</style><style
     id="style758"
     type="text/css">
	.st0{fill:#20BAF7;}
	.st1{fill:#2F9DC4;}
	.st2{fill:none;stroke:#0A2933;stroke-linejoin:round;}
	.st3{fill:none;stroke:#FFFFFF;stroke-linecap:round;stroke-linejoin:round;stroke-dasharray:1,2,6,2,3;}
</style><style
     id="style780"
     type="text/css">
	.st0{fill:#20BAF7;}
	.st1{fill:#2F9DC4;}
	.st2{fill:none;stroke:#0A2933;stroke-linejoin:round;}
	.st3{fill:none;stroke:#FFFFFF;stroke-linecap:round;stroke-linejoin:round;stroke-dasharray:1,2,6,2,3;}
</style><style
     id="style802"
     type="text/css">
	.st0{fill:#20BAF7;}
	.st1{fill:#2F9DC4;}
	.st2{fill:none;stroke:#0A2933;stroke-linejoin:round;}
	.st3{fill:none;stroke:#FFFFFF;stroke-linecap:round;stroke-linejoin:round;stroke-dasharray:1,2,6,2,3;}
</style><style
     id="style824"
     type="text/css">
	.st0{fill:#20BAF7;}
	.st1{fill:#2F9DC4;}
	.st2{fill:none;stroke:#0A2933;stroke-linejoin:round;}
	.st3{fill:none;stroke:#FFFFFF;stroke-linecap:round;stroke-linejoin:round;stroke-dasharray:1,2,6,2,3;}
</style><style
     id="style846"
     type="text/css">
	.st0{fill:#20BAF7;}
	.st1{fill:#2F9DC4;}
	.st2{fill:none;stroke:#0A2933;stroke-linejoin:round;}
	.st3{fill:none;stroke:#FFFFFF;stroke-linecap:round;stroke-linejoin:round;stroke-dasharray:1,2,6,2,3;}
</style><path
     style="fill:#808080;stroke-width:0.15628977;filter:url(#filter2218)"
     d="m 29.19833,31.643057 v -0.644583 l 1.650957,-0.02953 1.650956,-0.02953 0.06439,-3.365974 0.06439,-3.365974 -1.654197,-0.02956 -1.654196,-0.02956 v -0.649147 -0.649146 h 7.949051 c 7.355817,0 8.0059,0.01405 8.710804,0.188307 1.512811,0.373969 1.684495,0.625081 1.680666,2.458212 -0.0036,1.735128 -0.2203,2.139038 -1.28063,2.387249 -0.395772,0.09264 -0.386698,0.112222 0.120396,0.259757 0.918086,0.267109 1.132598,0.553063 1.273236,1.697281 0.128305,1.043871 0.16242,1.100143 0.685345,1.130468 0.505545,0.02932 0.550319,0.08416 0.550319,0.674113 v 0.6422 h -3.17962 -3.17962 v -1.72548 c 0,-2.201745 0.04226,-2.169397 -2.833918,-2.169397 h -2.072421 l 0.06845,1.273325 0.06845,1.273326 1.528664,0.02973 1.528663,0.02973 v 0.644381 0.64438 H 35.068398 29.19833 Z m 12.620719,-4.724886 c 0.61354,-0.167276 0.831521,-0.559166 0.831521,-1.494928 0,-0.633169 -0.10489,-1.028106 -0.293504,-1.105121 -0.18381,-0.07505 -1.09792,-0.119842 -2.445862,-0.119842 h -2.152358 v 1.398161 1.398161 l 1.895543,-0.0015 c 1.042549,-8.39e-4 2.016646,-0.03455 2.16466,-0.0749 z m 10.480548,5.228994 c -1.201155,-0.213627 -2.009857,-0.686705 -2.190863,-1.281622 -0.08791,-0.288938 -0.12349,-1.446629 -0.07906,-2.572649 0.0929,-2.354472 0.218205,-2.53659 1.985724,-2.885963 0.956579,-0.18908 1.486382,-0.209746 5.32642,-0.207771 3.659234,0.0019 4.409353,0.02911 5.287454,0.191889 1.607068,0.297921 1.78947,0.537215 1.78947,2.347608 v 1.552924 h -4.647137 -4.647137 v 0.878844 c 0,0.550387 0.109692,0.923634 0.293503,0.998686 0.170433,0.06959 0.987304,0.119843 1.948085,0.119843 1.919182,0 2.160963,-0.09424 2.160963,-0.842318 v -0.455975 h 2.445862 2.445861 v 0.695606 c 0,0.634612 -0.0661,0.726346 -0.75388,1.046194 -0.422902,0.196671 -1.147723,0.395257 -1.650957,0.452328 -1.354388,0.153602 -8.801279,0.124759 -9.714305,-0.03762 z m 7.175219,-4.562208 c 0.03855,-0.471757 -0.04127,-0.977342 -0.177386,-1.123522 -0.234612,-0.251964 -0.334266,-0.265782 -1.916719,-0.265782 -0.972184,0 -1.791804,0.05004 -1.962743,0.119842 -0.19043,0.07776 -0.293503,0.482453 -0.293503,1.152378 v 1.032535 l 2.140129,-0.02886 2.140129,-0.02886 z m 6.756014,4.565158 c -0.07109,-0.07564 -0.09515,-0.356287 -0.05347,-0.623664 0.07063,-0.453154 0.12556,-0.489624 0.809533,-0.537513 l 0.733759,-0.05138 0.0657,-2.26462 0.0657,-2.264621 -0.799456,-0.03143 c -0.796652,-0.03132 -0.79946,-0.03336 -0.79946,-0.580706 v -0.549277 l 3.118474,-0.02795 3.118473,-0.02795 v 0.452392 c 0,0.248816 0.0417,0.452393 0.09266,0.452393 0.05096,0 0.734338,-0.157773 1.518611,-0.350606 2.26682,-0.557356 4.097577,-0.69067 5.479026,-0.398979 1.477186,0.311906 1.470218,0.294047 1.470218,3.767866 v 3.173575 h -2.442054 -2.442051 l -0.06496,-2.81996 c -0.07597,-3.298053 -0.04103,-3.262258 -2.28861,-2.344532 l -1.33526,0.545209 0.06735,1.635528 0.06735,1.635529 0.794906,0.03129 0.794905,0.0313 v 0.642819 0.642818 H 70.28112 c -3.104173,0 -3.947983,-0.02865 -4.050303,-0.137525 z m 20.526131,-0.05592 c -0.560865,-0.103975 -1.166216,-0.293987 -1.345224,-0.422244 -0.236808,-0.169672 -0.358778,-0.913302 -0.447759,-2.72991 l -0.122293,-2.496717 -0.794905,-0.03129 -0.794905,-0.0313 V 25.796177 25.20962 l 0.794905,-0.0313 0.794905,-0.0313 0.06891,-1.173456 0.06891,-1.173457 h 2.430338 2.430338 l 0.06891,1.173457 0.06891,1.173456 3.485353,0.02771 3.485353,0.02771 v 0.593728 0.593728 l -3.485353,0.02771 -3.485353,0.02771 -0.06933,1.997373 c -0.03813,1.098555 -0.01181,2.09312 0.05847,2.210144 0.151798,0.252721 0.940346,0.361748 1.454532,0.201108 0.201173,-0.06285 0.398899,-0.294036 0.439392,-0.513747 l 0.07363,-0.399475 2.533308,-0.02858 2.533309,-0.02858 -0.08813,0.792384 c -0.100176,0.900703 -0.411969,1.117959 -2.043454,1.423862 -1.432202,0.268538 -6.653471,0.264925 -8.112758,-0.0056 z m 13.624269,0.01852 c -1.483331,-0.305535 -1.842719,-0.701845 -1.842719,-2.032033 0,-1.820879 0.439654,-1.987525 5.243599,-1.987525 h 2.96839 l -0.0703,-0.923785 -0.0703,-0.923785 -1.32207,-0.03072 c -1.57421,-0.03658 -1.72634,0.03004 -1.73151,0.758266 l -0.004,0.527804 -2.50701,-0.02846 -2.507007,-0.02846 0.03827,-0.677384 c 0.0416,-0.736503 0.387916,-1.050423 1.482197,-1.343565 0.92765,-0.248504 8.58417,-0.320028 9.91699,-0.09264 1.67987,0.286594 1.75558,0.412919 1.89249,3.157457 0.12218,2.449131 0.12284,2.451566 0.67262,2.483448 0.50554,0.02932 0.55032,0.08416 0.55032,0.674113 v 0.6422 l -5.93122,-1.99e-4 c -5.15998,-1e-4 -6.04144,-0.02286 -6.77895,-0.174771 z m 6.35092,-2.022185 v -1.198424 h -1.44135 c -1.08869,0 -1.47767,0.03865 -1.58981,0.157971 -0.27837,0.296204 -0.16219,1.993586 0.14504,2.119034 0.16143,0.06591 0.87684,0.119843 1.58981,0.119843 h 1.29631 z m 8.07135,1.547964 c 0,-0.616929 0.0289,-0.649146 0.58152,-0.649146 1.11613,0 1.14127,-0.08218 1.07287,-3.507323 l -0.0646,-3.233811 -12.22933,-0.04993 -12.229305,-0.04993 v -0.649147 -0.649146 l 14.736315,-0.02575 14.73633,-0.02575 v 4.034775 c 0,4.354814 -0.0594,4.156014 1.24294,4.156014 0.41438,0 0.46917,0.0758 0.46917,0.649146 v 0.649146 h -4.15797 -4.15797 z m 20.8672,0.455064 c -1.80402,-0.334433 -1.78947,-0.297004 -1.78947,-4.60464 v -3.809955 l 0.80638,-0.329259 c 0.44351,-0.181093 1.24147,-0.378582 1.77325,-0.438865 0.67841,-0.07691 10.2524,-0.109772 32.09045,-0.110163 l 31.12359,-5.57e-4 v 0.69908 0.699081 h -30.19779 c -29.60533,0 -30.20274,0.0038 -30.45097,0.193172 -0.31806,0.242666 -0.33953,6.187804 -0.0231,6.392013 0.15745,0.101603 0.86399,0.156178 2.41356,0.186428 1.98296,0.03871 2.2401,0.0227 2.70868,-0.168624 0.42863,-0.175016 0.51773,-0.331703 0.51773,-0.910476 v -0.699081 h 2.4669 2.46691 l -0.0822,1.138309 c -0.0927,1.284033 -0.2703,1.438185 -2.03888,1.769793 -0.84574,0.158577 -1.64136,0.18344 -5.87006,0.18344 -4.28321,0 -5.01901,-0.0236 -5.91499,-0.189696 z m 17.29656,0.01916 c -1.48333,-0.305535 -1.84272,-0.701845 -1.84272,-2.032033 0,-1.820879 0.43966,-1.987525 5.2436,-1.987525 h 2.9684 l -0.0703,-0.923785 -0.0703,-0.923785 -1.32208,-0.03072 c -1.57421,-0.03658 -1.72634,0.03004 -1.73151,0.758266 l -0.004,0.527804 -2.50701,-0.02846 -2.50701,-0.02846 0.0383,-0.677384 c 0.0416,-0.736502 0.38791,-1.050423 1.4822,-1.343565 0.92765,-0.248504 8.58416,-0.320028 9.91699,-0.09264 1.67986,0.286594 1.75558,0.412919 1.89249,3.157458 0.12217,2.44913 0.12283,2.451565 0.67261,2.483447 0.50555,0.02932 0.55032,0.08416 0.55032,0.674113 v 0.6422 l -5.93121,-1.99e-4 c -5.15999,-10e-5 -6.04145,-0.02286 -6.77895,-0.174771 z m 6.35092,-2.022185 v -1.198427 h -1.44135 c -1.08869,0 -1.47767,0.03865 -1.58981,0.157971 -0.27837,0.296204 -0.16219,1.993586 0.14504,2.119034 0.16143,0.06591 0.87684,0.119843 1.58981,0.119843 h 1.29631 z m 7.92674,2.059585 c -0.0711,-0.07564 -0.0951,-0.356287 -0.0535,-0.623664 0.0706,-0.453154 0.12556,-0.489624 0.80953,-0.537513 l 0.73376,-0.05138 0.0657,-2.26462 0.0657,-2.264621 -0.79945,-0.03143 c -0.79665,-0.03132 -0.79946,-0.03336 -0.79946,-0.58071 v -0.549276 l 3.11847,-0.02795 3.11848,-0.02795 v 0.452392 c 0,0.248816 0.044,0.452393 0.0977,0.452393 0.0537,0 0.66481,-0.155825 1.35794,-0.346279 1.98869,-0.546447 3.68842,-0.679078 5.26208,-0.410603 1.3823,0.235828 1.5982,0.540246 1.5982,2.253446 v 1.506483 l -2.50701,-0.02846 -2.50701,-0.02846 -0.0684,-1.273325 c -0.0525,-0.976491 -0.14401,-1.273326 -0.39255,-1.273326 -0.17825,0 -0.89305,0.245641 -1.58845,0.545869 l -1.26437,0.545869 0.0671,1.676209 0.0671,1.676209 0.79491,0.03129 0.7949,0.0313 v 0.642819 0.642818 h -3.92105 c -3.10418,0 -3.94799,-0.02865 -4.05031,-0.137525 z m 18.58529,0.02956 c -1.60429,-0.190051 -2.66409,-0.942326 -2.49524,-1.771196 l 0.075,-0.367881 2.50701,-0.02846 2.507,-0.02846 v 0.532797 c 0,0.293039 0.13208,0.586727 0.29351,0.65264 0.17094,0.0698 0.99056,0.119843 1.96274,0.119843 1.59576,0 1.68053,-0.01209 1.92571,-0.274639 0.37894,-0.405782 0.0556,-1.098823 -0.58999,-1.264572 -0.29405,-0.0755 -1.96547,-0.262858 -3.71426,-0.416364 -2.76354,-0.242577 -3.28055,-0.319814 -3.95092,-0.590233 -0.61771,-0.249175 -0.80653,-0.426264 -0.94821,-0.889285 -0.22449,-0.733663 0.0213,-1.602415 0.55849,-1.973711 0.81402,-0.562673 1.94425,-0.683184 6.40732,-0.683184 4.55908,0 5.59349,0.08896 6.62788,0.569998 0.65181,0.303124 0.72201,0.403404 0.72201,1.031376 v 0.695605 h -2.44586 -2.44586 v -0.39298 c 0,-0.216135 -0.10734,-0.508251 -0.23854,-0.649146 -0.22389,-0.240447 -0.341,-0.256173 -1.90777,-0.256173 -0.97218,0 -1.7918,0.05004 -1.96274,0.119842 -0.38813,0.158479 -0.37695,1.093679 0.0157,1.312934 0.20111,0.1123 1.37678,0.273572 3.36306,0.461326 3.86678,0.365508 4.17652,0.415845 4.99109,0.811122 0.65761,0.319108 0.66932,0.347875 0.58978,1.448936 -0.0748,1.036014 -0.12869,1.144382 -0.69261,1.393664 -1.09159,0.48254 -1.8252,0.544954 -6.29024,0.535156 -2.25757,-0.005 -4.44637,-0.04949 -4.864,-0.09896 z M 50.08888,24.06154 C 50.0182,23.98633 49.99414,23.682982 50.03541,23.387426 l 0.07504,-0.537373 16.570714,-0.02566 16.570713,-0.02567 v 0.699778 0.699779 H 66.734633 c -13.755074,0 -16.538734,-0.02287 -16.645753,-0.13674 z"
     id="path2208"
     inkscape:connector-curvature="0"
     transform="matrix(0.72019374,0,0,1.1874394,-18.793251,-24.729426)" /><g
     style="overflow:visible;fill:#cccccc"
     id="g1691"
     transform="matrix(0.03722972,0,0,0.05070799,90.459068,11.223203)"><g
       id="Shape_1"
       style="fill:#cccccc"><g
         id="g1678"
         style="fill:#cccccc"><path
           id="path1676"
           d="m 287.55,389.163 v 23.572 c 6.893,-1.17 13.26,-3.882 18.737,-7.767 L 289.62,388.3 c -0.674,0.32 -1.363,0.61 -2.07,0.863 z m -7.713,-28.417 c -3.792,0 -6.866,3.074 -6.866,6.866 0,3.792 3.074,6.866 6.866,6.866 3.792,0 6.866,-3.074 6.866,-6.866 0,-3.792 -3.074,-6.866 -6.866,-6.866 z m 0,19.484 c -1.607,0 -2.911,1.303 -2.911,2.91 0,1.607 1.303,2.91 2.911,2.91 1.607,0 2.91,-1.303 2.91,-2.91 0,-1.607 -1.303,-2.91 -2.91,-2.91 z m 20.691,-2.834 16.667,16.667 c 3.886,-5.477 6.596,-11.846 7.766,-18.739 h -23.574 c -0.254,0.707 -0.539,1.4 -0.859,2.072 z m -0.002,-19.567 c 0.319,0.673 0.608,1.363 0.861,2.07 h 23.573 c -1.17,-6.893 -3.882,-13.261 -7.767,-18.738 z m -30.47,-10.905 c 0.673,-0.319 1.362,-0.609 2.07,-0.862 V 322.49 c -6.893,1.17 -13.26,3.882 -18.738,7.767 z m -11.769,28.4 h -23.573 c 1.17,6.894 3.881,13.262 7.766,18.738 l 16.668,-16.668 c -0.319,-0.672 -0.608,-1.363 -0.861,-2.07 z m 34.169,-7.713 c 0,1.607 1.303,2.91 2.91,2.91 1.607,0 2.91,-1.303 2.91,-2.91 0,-1.607 -1.303,-2.91 -2.91,-2.91 -1.607,0 -2.91,1.303 -2.91,2.91 z m 13.832,-37.356 c -5.478,-3.885 -11.845,-6.596 -18.738,-7.766 v 23.572 c 0.707,0.253 1.397,0.542 2.07,0.86 z m -26.451,24.737 c 1.607,0 2.91,-1.303 2.91,-2.91 0,-1.607 -1.303,-2.91 -2.91,-2.91 -1.607,0 -2.911,1.303 -2.911,2.91 0,1.607 1.304,2.91 2.911,2.91 z m 0,-62.331 c -41.394,0 -74.951,33.557 -74.951,74.951 0,41.394 33.557,74.951 74.951,74.951 41.394,0 74.951,-33.557 74.951,-74.951 0,-41.394 -33.557,-74.951 -74.951,-74.951 z m 0,128.487 c -29.567,0 -53.537,-23.969 -53.537,-53.536 0,-29.567 23.969,-53.536 53.537,-53.536 29.567,0 53.536,23.969 53.536,53.536 0,29.567 -23.969,53.536 -53.536,53.536 z M 253.386,404.97 c 5.477,3.885 11.846,6.596 18.739,7.766 v -23.572 c -0.708,-0.253 -1.398,-0.542 -2.072,-0.861 z m 5.76,-47.143 -16.667,-16.667 c -3.886,5.478 -6.596,11.847 -7.766,18.739 h 23.575 c 0.254,-0.707 0.539,-1.398 0.858,-2.072 z m 8.072,9.784 c 0,-1.607 -1.303,-2.91 -2.91,-2.91 -1.607,0 -2.91,1.303 -2.91,2.91 0,1.607 1.303,2.91 2.91,2.91 1.608,0 2.91,-1.302 2.91,-2.91 z m 460.963,-9.784 -16.667,-16.667 c -3.887,5.478 -6.597,11.847 -7.767,18.739 h 23.575 c 0.254,-0.707 0.539,-1.398 0.859,-2.072 z m 41.382,19.569 16.667,16.667 c 3.886,-5.477 6.596,-11.846 7.766,-18.739 h -23.574 c -0.255,0.707 -0.54,1.4 -0.859,2.072 z m -0.002,-19.567 c 0.319,0.673 0.608,1.363 0.861,2.07 h 23.573 c -1.17,-6.893 -3.882,-13.261 -7.767,-18.738 z m -12.977,31.334 v 23.572 c 6.893,-1.17 13.26,-3.882 18.737,-7.767 L 758.653,388.3 c -0.673,0.32 -1.362,0.61 -2.069,0.863 z m -7.713,-28.417 c -3.792,0 -6.866,3.074 -6.866,6.866 0,3.792 3.074,6.866 6.866,6.866 3.792,0 6.866,-3.074 6.866,-6.866 0,-3.792 -3.074,-6.866 -6.866,-6.866 z m 0,-68.085 c -41.394,0 -74.95,33.557 -74.95,74.951 0,41.394 33.557,74.951 74.95,74.951 41.395,0 74.951,-33.557 74.951,-74.951 0,-41.394 -33.556,-74.951 -74.951,-74.951 z m 0,128.487 c -29.567,0 -53.536,-23.969 -53.536,-53.536 0,-29.567 23.969,-53.536 53.536,-53.536 29.567,0 53.536,23.969 53.536,53.536 0,29.567 -23.969,53.536 -53.536,53.536 z m 188.764,-74.554 c 1.578,1.175 -15.13,-18.556 -25.573,-26 -16.99,-12.11 -155.921,-68.603 -256.158,-80.555 6.725,0.802 -17.57,-0.149 -23.868,-4.688 -4.812,-3.468 -8.588,-8.741 -13.213,-12.36 -14.177,-11.093 -59.156,-48.183 -82.261,-61.376 -2.465,-1.407 -6.54,-1.828 -8.95,-2.558 -1.324,-0.4 -11.122,-0.132 -8.524,0 -44.285,-2.256 -106.493,-1.794 -152.587,10.656 -4.209,1.137 -30.368,8.089 -48.589,15.344 -5.724,2.278 -12.226,4.007 -19.18,6.819 -20.012,8.093 -38.345,15.188 -57.54,23.868 -11.419,5.165 -30.696,14.476 -28.13,14.065 -1.611,0.257 -3.312,-2.109 -5.967,-1.278 -5.653,1.768 -11.529,6.517 -16.623,8.098 -4.053,1.259 -25.214,0.021 -31.54,-7.246 -6.711,-7.708 -8.796,-3.008 -20.033,-4.688 9.422,1.408 -66.962,-4.819 -69.474,-3.41 -7.891,-1.1 -3.403,4.299 -3.41,5.114 2.299,2.393 3.725,5.662 6.393,7.672 9.392,7.075 35.363,33.205 37.082,34.95 3.051,3.1 5.275,7.363 8.95,9.804 -0.142,0.426 -0.284,0.852 -0.426,1.278 -5.36,1.6 -8.503,7.122 -12.786,9.803 -8.165,5.111 -14.437,12.33 -17.049,23.016 0,6.251 0,12.504 0,18.754 -7.517,0.259 -15.208,2.511 -21.737,4.263 -4.043,1.084 -7.959,-0.34 -8.098,4.688 -1.802,3.203 -0.459,19.141 -0.426,24.294 6.73,4.299 14.264,8.488 21.737,12.36 20.915,10.838 14.065,21.312 14.065,21.312 H 203.526 V 363 c 0,-40.017 32.44,-72.457 72.458,-72.457 h 7.107 c 40.017,0 72.458,32.44 72.458,72.457 v 35.593 H 672.366 V 363 c 0,-40.017 32.44,-72.457 72.458,-72.457 h 8.384 c 40.018,0 72.458,32.44 72.458,72.457 v 35.593 h 37.381 c 0,0 46.533,-0.426 69.9,-0.427 2.136,-1.928 6.301,-4.372 -1.279,-11.508 3.559,3.35 5.498,-17.201 4.688,-30.262 0.284,0 0.568,0 0.853,0 6.055,-3.637 6.659,-5.161 0.426,-9.802 z M 388.168,247.711 c -0.261,0 -0.521,0 -0.783,0 -0.896,0.57 -4.825,0.413 -4.552,0.416 -24.338,-0.919 -69.602,2.784 -101.15,-5.957 -0.821,-1.008 -1.016,-3.081 -0.853,-3.41 1.89,-7.701 14.557,-10.835 21.737,-14.491 8.349,-4.251 54.001,-22.514 68.195,-24.721 6.287,16.395 16.424,46.198 17.406,48.163 0.023,0 0.047,0 0.069,0 0.024,0.141 -0.002,0.135 -0.069,0 z m 142.427,0.852 c 0,0.142 0,0.426 0,0.426 H 398.893 c 0,0 -12.664,-38.209 -18.327,-50.294 0.753,-0.409 0.717,-0.536 1.705,-0.853 31.656,-14.891 97.021,-12.814 119.768,-11.934 7.472,13.752 13.626,28.483 20.032,43.048 2.401,5.46 8.331,13.33 8.951,19.606 -0.143,10e-4 -0.285,10e-4 -0.427,10e-4 z m 49.868,0.213 c -18.3,0 -29.133,-0.139 -43.901,-0.213 -11.222,-26.264 -24.004,-48.287 -28.13,-61.376 0.658,-1.125 1.651,-0.93 3.409,-0.853 0.641,-0.288 2.163,-0.012 3.836,0 8.798,0.062 10.622,6.462 16.197,10.655 6.241,4.695 11.165,10.716 16.622,16.196 9.058,9.099 16.826,16.37 25.999,26.426 2.14,2.345 3.659,5.085 5.968,7.246 0,0.427 0,1.493 0,1.919 z m 40.917,-6.18 c -3.147,0.942 -6.108,0.679 -8.951,1.705 -0.562,-5.606 -5.075,-16.551 -10.229,-17.049 -1.076,-0.786 -14.896,-1.694 -16.623,-0.853 -1.051,0.52 -0.657,0.754 -1.705,1.279 2.474,3.117 -9.226,-5.693 -45.605,-47.737 -0.716,-0.827 -3.147,-2.229 -2.131,-3.409 1.079,-2.12 6.87,-4.115 9.803,-4.263 48.404,34.093 66.753,50.191 86.097,66.917 -3.426,0.787 -7.36,2.423 -10.656,3.41 z m -238.547,5.531 c 0.095,0.004 0.196,0.006 0.29,0.01 -0.173,-0.007 -0.257,-0.009 -0.29,-0.01 z M 727.32,375.324 h -23.572 c 1.169,6.894 3.881,13.262 7.766,18.738 l 16.668,-16.668 c -0.32,-0.672 -0.609,-1.363 -0.862,-2.07 z m 21.551,-20.332 c 1.607,0 2.91,-1.303 2.91,-2.91 0,-1.607 -1.303,-2.91 -2.91,-2.91 -1.607,0 -2.91,1.303 -2.91,2.91 0,1.607 1.303,2.91 2.91,2.91 z m 26.45,-24.737 c -5.477,-3.885 -11.845,-6.596 -18.737,-7.766 v 23.572 c 0.707,0.253 1.397,0.542 2.07,0.86 z m -13.831,37.356 c 0,1.607 1.303,2.91 2.91,2.91 1.607,0 2.91,-1.303 2.91,-2.91 0,-1.607 -1.303,-2.91 -2.91,-2.91 -1.607,0 -2.91,1.303 -2.91,2.91 z m -25.238,0 c 0,-1.607 -1.303,-2.91 -2.91,-2.91 -1.606,0 -2.91,1.303 -2.91,2.91 0,1.607 1.304,2.91 2.91,2.91 1.607,0 2.91,-1.302 2.91,-2.91 z m 2.838,-20.687 c 0.673,-0.319 1.362,-0.609 2.069,-0.862 V 322.49 c -6.893,1.17 -13.26,3.882 -18.737,7.767 z m 9.781,33.306 c -1.607,0 -2.91,1.303 -2.91,2.91 0,1.607 1.303,2.91 2.91,2.91 1.607,0 2.91,-1.303 2.91,-2.91 0,-1.607 -1.302,-2.91 -2.91,-2.91 z m -26.451,24.74 c 5.478,3.885 11.846,6.596 18.739,7.766 v -23.572 c -0.707,-0.253 -1.398,-0.542 -2.071,-0.861 z"
           inkscape:connector-curvature="0"
           style="fill:#cccccc" /></g></g></g><g
     style="overflow:visible;fill:#b3b3b3"
     id="g1779"
     transform="matrix(0.03876944,0,0,0.05341398,69.404904,9.7783158)"><g
       id="Shape_1-3"
       style="fill:#b3b3b3"><g
         id="g1766"
         style="fill:#b3b3b3"><path
           id="path1764"
           d="m 251.99,369.532 c -3.653,0 -6.615,2.962 -6.615,6.615 0,3.653 2.962,6.615 6.615,6.615 3.653,0 6.615,-2.962 6.615,-6.615 0,-3.653 -2.961,-6.615 -6.615,-6.615 z m 0,18.772 c -1.548,0 -2.804,1.256 -2.804,2.805 0,1.548 1.255,2.804 2.804,2.804 1.549,0 2.804,-1.256 2.804,-2.804 0,-1.549 -1.255,-2.805 -2.804,-2.805 z m 7.431,8.607 v 22.711 c 6.642,-1.127 12.776,-3.74 18.053,-7.483 L 261.415,396.08 c -0.648,0.307 -1.312,0.587 -1.994,0.831 z m 12.505,-11.337 16.058,16.058 c 3.744,-5.276 6.354,-11.413 7.482,-18.055 h -22.713 c -0.245,0.682 -0.52,1.349 -0.827,1.997 z m -0.002,-18.852 c 0.307,0.648 0.585,1.313 0.83,1.995 h 22.712 c -1.127,-6.642 -3.74,-12.776 -7.483,-18.054 z m -29.358,-10.507 c 0.649,-0.308 1.313,-0.587 1.995,-0.831 v -22.711 c -6.642,1.127 -12.776,3.74 -18.053,7.483 z m 9.424,-52.279 c -39.881,0 -72.212,32.33 -72.212,72.212 0,39.882 32.331,72.212 72.212,72.212 39.882,0 72.212,-32.33 72.212,-72.212 0,-39.882 -32.33,-72.212 -72.212,-72.212 z m 0,123.792 c -28.487,0 -51.58,-23.093 -51.58,-51.58 0,-28.486 23.093,-51.58 51.58,-51.58 28.487,0 51.58,23.094 51.58,51.58 0,28.487 -23.093,51.58 -51.58,51.58 z m 0,-63.739 c 1.549,0 2.804,-1.256 2.804,-2.805 0,-1.548 -1.255,-2.804 -2.804,-2.804 -1.548,0 -2.804,1.256 -2.804,2.804 0.001,1.549 1.256,2.805 2.804,2.805 z m 25.484,-23.834 c -5.276,-3.743 -11.412,-6.355 -18.053,-7.482 v 22.711 c 0.682,0.244 1.347,0.522 1.995,0.83 z m -45.418,26.566 -16.058,-16.059 c -3.744,5.277 -6.355,11.413 -7.482,18.055 h 22.713 c 0.244,-0.682 0.519,-1.348 0.827,-1.996 z m -5.55,45.419 c 5.277,3.743 11.413,6.355 18.055,7.482 v -22.711 c -0.682,-0.244 -1.348,-0.522 -1.996,-0.83 z m 4.721,-28.563 h -22.711 c 1.127,6.642 3.739,12.777 7.482,18.055 l 16.059,-16.06 c -0.307,-0.648 -0.586,-1.313 -0.83,-1.995 z m 8.606,-7.431 c 0,-1.549 -1.255,-2.804 -2.804,-2.804 -1.549,0 -2.804,1.255 -2.804,2.804 0,1.549 1.255,2.804 2.804,2.804 1.548,0 2.804,-1.255 2.804,-2.804 z m 24.315,0 c 0,1.549 1.255,2.804 2.804,2.804 1.549,0 2.804,-1.255 2.804,-2.804 0,-1.549 -1.255,-2.804 -2.804,-2.804 -1.549,0.001 -2.804,1.256 -2.804,2.804 z m 547.493,-6.614 c -3.653,0 -6.615,2.962 -6.615,6.615 0,3.653 2.962,6.615 6.615,6.615 3.653,0 6.615,-2.962 6.615,-6.615 0,-3.653 -2.962,-6.615 -6.615,-6.615 z m -9.424,-13.317 c 0.648,-0.308 1.313,-0.587 1.994,-0.831 v -22.711 c -6.642,1.127 -12.776,3.74 -18.054,7.483 z m 9.424,32.089 c -1.549,0 -2.804,1.256 -2.804,2.805 0,1.548 1.255,2.804 2.804,2.804 1.549,0 2.804,-1.256 2.804,-2.804 -0.001,-1.549 -1.256,-2.805 -2.804,-2.805 z m 7.43,8.607 v 22.711 c 6.642,-1.127 12.775,-3.74 18.053,-7.483 L 821.065,396.08 c -0.648,0.307 -1.312,0.587 -1.994,0.831 z m 13.331,-13.334 c -0.244,0.682 -0.52,1.349 -0.826,1.997 l 16.058,16.058 c 3.744,-5.276 6.354,-11.413 7.482,-18.055 z m 104.874,-91.42 C 927.475,277.153 902.38,271.922 883.264,265.68 749.776,233.438 705.382,243.933 683.102,240.792 c -4.495,-1.199 -8.503,-5.123 -12.179,-7.413 -8.057,-5.019 -16.418,-9.434 -24.358,-14.298 -13.119,-8.036 -73.653,-41.146 -90.02,-47.128 -35.963,-13.142 -92.818,-23.68 -229.815,-12.708 -5.56,-1.528 -8.916,-6.016 -14.826,-7.414 -5.846,-1.383 -11.214,1.693 -15.356,2.648 0.075,4.491 -0.326,8.136 -1.059,11.649 -26.775,11.291 -53.869,19.953 -80.488,31.242 -11.108,4.711 -22.569,9.32 -33.89,14.297 -7.042,3.097 -13.77,7.495 -21.71,10.062 -8.624,2.786 -18.051,1.527 -27.536,3.706 -17.267,3.967 -35.99,4.497 -55.071,4.766 -2.181,3.738 -5.977,7.503 -6.884,12.18 3.305,1.02 4.412,3.298 4.236,7.942 -5.84,8.653 -4.274,20.981 -4.236,34.949 -12.441,6.37 -14.333,29.711 -11.12,48.187 -0.353,1.589 -0.706,3.178 -1.059,4.767 0.665,5.223 2.365,10.742 2.647,16.415 4.672,3.133 9.968,8.167 13.238,12.709 1.595,2.215 2.371,6.033 5.295,6.884 15.631,11.41 94.785,13.768 94.785,13.768 l 4.164,0.228 c -0.637,-3.934 -0.973,-7.969 -0.973,-12.082 0,-41.478 33.625,-75.102 75.102,-75.102 41.478,0 75.102,33.624 75.102,75.102 0,6.966 -0.952,18.277 -2.728,24.678 l 416.073,-0.736 c -2.527,-7.52 -3.898,-15.57 -3.898,-23.941 0,-41.478 33.624,-75.102 75.102,-75.102 41.478,0 75.102,33.624 75.102,75.102 0,7.27 -1.036,14.297 -2.964,20.945 l 4.252,-0.089 c 0,0 32.779,-1.584 40.773,-5.296 7.994,-3.711 11.12,-14.297 11.12,-14.297 l -2.118,-22.24 c 0.001,-0.001 9.847,-47.13 -0.529,-63.015 z M 272.719,237.621 c -24.887,-16.535 -11.702,-35.842 -12.373,-35.781 -0.398,0.354 -0.685,0.636 -0.865,0.827 0.528,-0.559 0.788,-0.82 0.865,-0.827 6.412,-5.714 43.006,-31.271 172.82,-31.474 4.06,22.768 8.12,52.68 12.179,75.446 -52.233,-1.583 -155.045,-0.7 -172.626,-8.191 z m 334.662,8.467 c -11.408,0 -124.969,-0.031 -124.969,-0.031 0,0 -18.331,-48.33 -24.887,-75.157 0.763,0.07 23.298,1.055 23.298,1.055 0,0 44.613,5.079 72.546,14.298 21.976,7.253 65.363,36.403 66.19,38.126 -13.053,0.668 -16.143,10.95 -12.178,21.709 z m 204.26,57.848 c -39.882,0 -72.212,32.33 -72.212,72.212 0,39.882 32.33,72.212 72.212,72.212 39.882,0 72.212,-32.33 72.212,-72.212 0,-39.882 -32.331,-72.212 -72.212,-72.212 z m 0,123.792 c -28.486,0 -51.58,-23.093 -51.58,-51.58 0,-28.486 23.094,-51.58 51.58,-51.58 28.487,0 51.58,23.094 51.58,51.58 0,28.487 -23.093,51.58 -51.58,51.58 z m -19.935,-61.007 -16.059,-16.059 c -3.743,5.277 -6.354,11.413 -7.481,18.055 h 22.713 c 0.244,-0.682 0.519,-1.348 0.827,-1.996 z m 7.777,9.425 c 0,-1.549 -1.256,-2.804 -2.805,-2.804 -1.548,0 -2.804,1.255 -2.804,2.804 0,1.549 1.256,2.804 2.804,2.804 1.55,0 2.805,-1.255 2.805,-2.804 z m 12.158,-12.157 c 1.549,0 2.804,-1.256 2.804,-2.805 0,-1.548 -1.255,-2.804 -2.804,-2.804 -1.549,0 -2.804,1.256 -2.804,2.804 0,1.549 1.255,2.805 2.804,2.805 z m 25.484,-23.834 c -5.277,-3.743 -11.412,-6.355 -18.054,-7.482 v 22.711 c 0.682,0.244 1.347,0.522 1.995,0.83 z m -13.327,35.991 c 0,1.549 1.256,2.804 2.805,2.804 1.548,0 2.804,-1.255 2.804,-2.804 0,-1.549 -1.256,-2.804 -2.804,-2.804 -1.549,0.001 -2.805,1.256 -2.805,2.804 z m -37.642,35.994 c 5.277,3.743 11.413,6.355 18.055,7.482 v -22.711 c -0.683,-0.244 -1.348,-0.522 -1.996,-0.83 z m 4.721,-28.563 h -22.711 c 1.127,6.642 3.739,12.777 7.482,18.055 l 16.059,-16.06 c -0.308,-0.648 -0.586,-1.313 -0.83,-1.995 z m 41.527,-14.86 h 22.711 c -1.127,-6.642 -3.739,-12.776 -7.482,-18.054 l -16.059,16.059 c 0.307,0.648 0.586,1.313 0.83,1.995 z"
           inkscape:connector-curvature="0"
           style="fill:#b3b3b3" /></g></g></g><g
     style="overflow:visible;fill:#999999"
     id="g1882"
     transform="matrix(0.0444286,0,0,0.05573871,44.181924,8.6423974)"><g
       id="Shape_1-38"
       style="fill:#999999"><g
         id="g1869"
         style="fill:#999999"><path
           id="path1867"
           d="m 251.072,391.644 c -1.449,0 -2.624,1.175 -2.624,2.624 0,1.449 1.175,2.624 2.624,2.624 1.449,0 2.624,-1.175 2.624,-2.624 0,-1.449 -1.175,-2.624 -2.624,-2.624 z m 0,-17.568 c -3.419,0 -6.19,2.771 -6.19,6.19 0,3.419 2.771,6.19 6.19,6.19 3.419,0 6.191,-2.771 6.191,-6.19 0,-3.419 -2.772,-6.19 -6.191,-6.19 z m -8.821,-12.464 c 0.607,-0.288 1.229,-0.548 1.867,-0.776 v -21.254 c -6.215,1.055 -11.957,3.5 -16.895,7.002 z m 8.821,-48.924 c -37.322,0 -67.578,30.256 -67.578,67.578 0,37.322 30.255,67.578 67.578,67.578 37.323,0 67.578,-30.256 67.578,-67.578 0,-37.322 -30.255,-67.578 -67.578,-67.578 z m 0,115.849 c -26.659,0 -48.27,-21.611 -48.27,-48.271 0,-26.658 21.611,-48.27 48.27,-48.27 26.659,0 48.27,21.611 48.27,48.27 0,26.66 -21.611,48.271 -48.27,48.271 z m 6.953,-28.839 v 21.253 c 6.216,-1.055 11.958,-3.499 16.896,-7.002 l -15.028,-15.028 c -0.607,0.288 -1.229,0.549 -1.868,0.777 z m 12.477,-26.385 h 21.256 c -1.056,-6.216 -3.499,-11.958 -7.002,-16.896 l -15.027,15.027 c 0.287,0.608 0.544,1.232 0.773,1.869 z m -0.775,15.774 15.028,15.028 c 3.503,-4.938 5.948,-10.68 7.002,-16.896 h -21.254 c -0.228,0.638 -0.489,1.261 -0.776,1.868 z m -42.503,24.861 c 4.938,3.503 10.679,5.948 16.895,7.003 v -21.253 c -0.638,-0.229 -1.259,-0.49 -1.866,-0.778 z m 35.226,-33.682 c 0,1.449 1.175,2.624 2.624,2.624 1.449,0 2.624,-1.175 2.624,-2.624 0,-1.449 -1.175,-2.624 -2.624,-2.624 -1.449,0 -2.624,1.174 -2.624,2.624 z m 12.47,-33.681 c -4.938,-3.502 -10.679,-5.948 -16.895,-7.003 v 21.254 c 0.638,0.228 1.259,0.49 1.866,0.777 z m -23.848,22.304 c 1.449,0 2.624,-1.175 2.624,-2.624 0,-1.449 -1.175,-2.624 -2.624,-2.624 -1.449,0 -2.624,1.175 -2.624,2.624 0,1.449 1.175,2.624 2.624,2.624 z m -19.429,18.331 h -21.256 c 1.055,6.216 3.498,11.958 7.002,16.896 l 15.027,-15.027 c -0.287,-0.608 -0.544,-1.232 -0.773,-1.869 z m 0.775,-15.774 -15.028,-15.028 c -3.503,4.938 -5.948,10.68 -7.002,16.896 h 21.254 c 0.228,-0.639 0.489,-1.261 0.776,-1.868 z m 7.277,8.82 c 0,-1.449 -1.175,-2.624 -2.624,-2.624 -1.449,0 -2.625,1.175 -2.625,2.624 0,1.449 1.175,2.624 2.625,2.624 1.449,0 2.624,-1.175 2.624,-2.624 z m 545.641,-6.19 c -3.419,0 -6.19,2.771 -6.19,6.19 0,3.419 2.771,6.19 6.19,6.19 3.419,0 6.19,-2.771 6.19,-6.19 0,-3.419 -2.771,-6.19 -6.19,-6.19 z m 0,17.568 c -1.449,0 -2.624,1.175 -2.624,2.624 0,1.449 1.175,2.624 2.624,2.624 1.449,0 2.624,-1.175 2.624,-2.624 0,-1.449 -1.175,-2.624 -2.624,-2.624 z m 19.43,-18.331 h 21.256 c -1.056,-6.216 -3.499,-11.958 -7.002,-16.896 l -15.028,15.027 c 0.287,0.608 0.545,1.232 0.774,1.869 z m -19.43,-60.625 c -37.322,0 -67.578,30.256 -67.578,67.578 0,37.322 30.256,67.578 67.578,67.578 37.322,0 67.578,-30.256 67.578,-67.578 0,-37.322 -30.256,-67.578 -67.578,-67.578 z m 0,115.849 c -26.658,0 -48.27,-21.611 -48.27,-48.271 0,-26.658 21.611,-48.27 48.27,-48.27 26.659,0 48.27,21.611 48.27,48.27 -10e-4,26.66 -21.611,48.271 -48.27,48.271 z m 18.654,-39.45 15.028,15.028 c 3.503,-4.938 5.947,-10.68 7.002,-16.896 h -21.254 c -0.227,0.638 -0.488,1.261 -0.776,1.868 z m 132.457,-46.259 c -1.252,-1.845 -4.856,-2.665 -5.915,-4.436 -1.417,-2.369 -1.364,-7.17 -2.465,-9.858 -9.218,-22.513 -19.371,-29.408 -32.532,-37.461 -18.479,-11.308 -38.207,-15.987 -60.135,-24.153 1.057,0.394 -33.068,-8.901 -41.404,-10.351 -5.126,-1.68 -23.627,-7.028 -28.096,-5.422 -4.913,-5.075 -13.582,-7.57 -19.717,-11.337 -9.902,-6.081 -20.112,-12.629 -30.067,-18.73 -5.321,-3.262 -10.92,-5.121 -16.266,-8.38 -13.837,-8.436 -44.362,-22.181 -44.362,-22.181 0,0 -112.554,-63.401 -509.176,-28.589 -4.79,0.466 -10.684,0.14 -14.294,2.465 -0.493,0.164 -0.986,0.328 -1.479,0.492 0.087,3.815 1.864,15.823 0,18.73 -0.563,4.381 -9.026,11.135 -11.83,14.295 -6.536,7.366 -13.401,15.301 -19.223,23.167 -2.676,3.615 -5.231,8.74 -8.873,11.337 -1.146,1.143 -7.631,10.669 -10.351,14.787 -2.579,3.904 -7.657,13.699 -8.873,18.237 -2.515,9.391 0.97,21.254 2.465,28.589 0.114,0.559 -0.234,15.626 0,22.181 -1.671,6.001 -5.517,12.488 -7.887,18.238 -2.648,6.425 -3.191,11.518 -8.379,15.28 -0.677,13.506 0.289,26.086 6.408,34.011 3.67,4.753 17.75,26.617 17.75,26.617 h 103.556 c -4.199,-9.163 -6.543,-19.353 -6.543,-30.091 0,-39.936 32.374,-72.309 72.309,-72.309 39.936,0 72.309,32.373 72.309,72.309 0,10.738 -2.344,20.928 -6.542,30.091 h 402.73 c -4.199,-9.163 -6.543,-19.353 -6.543,-30.091 0,-39.936 32.374,-72.309 72.31,-72.309 39.935,0 72.309,32.373 72.309,72.309 0,10.738 -2.344,20.928 -6.543,30.091 h 52.814 c 0,0 42.83,-2.448 27.113,-14.295 1.69,-3.969 1.966,-9.907 4.929,-13.801 0.863,-0.626 2.618,-0.877 3.943,-0.986 4.672,-10.074 0.86,-32.091 -3.45,-38.446 z M 141.876,237.839 c 0,0 5.372,-5.028 7.887,-6.901 7.176,-5.345 13.777,-11.422 21.195,-16.759 11.72,-8.431 25.772,-20.819 39.433,-26.617 8.832,-3.748 18.973,-2.966 29.574,-5.422 8.379,-1.94 18.833,-1.498 27.603,-3.45 -0.968,0 22.181,-0.985 21.195,-0.985 -0.986,0 14.604,-1.534 21.195,-1.479 0,24.644 2.958,43.379 2.958,68.021 -113.646,-5.111 -171.04,-6.408 -171.04,-6.408 z m 203.079,5.422 -4.437,-68.515 c 0,0 37.014,-3.078 72.95,-3.199 36.759,-0.125 72.458,2.706 72.458,2.706 l 7.395,76.895 z m 188.784,10.843 c 0,0 -11.337,-78.389 -11.337,-78.878 0,-0.49 66.874,8.717 94.639,20.222 9.843,4.078 21.66,8.358 30.561,13.802 4.699,2.874 16.267,8.872 16.267,8.872 l 2.957,46.826 z m 242.777,107.508 c 0.606,-0.288 1.229,-0.548 1.867,-0.776 v -21.254 c -6.216,1.055 -11.957,3.5 -16.896,7.002 z m 15.773,38.086 v 21.253 c 6.216,-1.055 11.957,-3.499 16.896,-7.002 l -15.027,-15.028 c -0.608,0.288 -1.23,0.549 -1.869,0.777 z m 4.425,-19.432 c 0,1.449 1.175,2.624 2.624,2.624 1.449,0 2.623,-1.175 2.623,-2.624 0,-1.449 -1.174,-2.624 -2.623,-2.624 -1.449,0 -2.624,1.174 -2.624,2.624 z m -22.755,0 c 0,-1.449 -1.175,-2.624 -2.624,-2.624 -1.449,0 -2.624,1.175 -2.624,2.624 0,1.449 1.175,2.624 2.624,2.624 1.449,0 2.624,-1.175 2.624,-2.624 z m 11.377,-11.377 c 1.449,0 2.624,-1.175 2.624,-2.624 0,-1.449 -1.175,-2.624 -2.624,-2.624 -1.449,0 -2.624,1.175 -2.624,2.624 0,1.449 1.175,2.624 2.624,2.624 z m 23.848,-22.304 c -4.938,-3.502 -10.68,-5.948 -16.895,-7.003 v 21.254 c 0.638,0.228 1.26,0.49 1.866,0.777 z m -47.696,67.363 c 4.938,3.503 10.679,5.948 16.895,7.003 v -21.253 c -0.639,-0.229 -1.26,-0.49 -1.867,-0.778 z m 4.418,-26.728 H 744.65 c 1.056,6.216 3.499,11.958 7.002,16.896 l 15.027,-15.027 c -0.286,-0.608 -0.544,-1.232 -0.773,-1.869 z m 0.776,-15.774 -15.028,-15.028 c -3.503,4.938 -5.947,10.68 -7.002,16.896 h 21.254 c 0.228,-0.639 0.489,-1.261 0.776,-1.868 z"
           inkscape:connector-curvature="0"
           style="fill:#999999" /></g></g></g><g
     style="overflow:visible;fill:#808080"
     id="g2087"
     transform="matrix(0.03639682,0,0,0.04645303,26.555907,11.571463)"><g
       id="Shape_1-7"
       transform="translate(13.828954,11.028416)"
       style="fill:#808080"><g
         id="g2074"
         style="fill:#808080"><path
           id="path2072"
           d="m 245.773,380.676 c -4.229,0 -7.657,3.416 -7.657,7.63 0,4.215 3.428,7.631 7.657,7.631 4.229,0 7.657,-3.416 7.657,-7.631 0,-4.214 -3.428,-7.63 -7.657,-7.63 z m 0,21.652 c -1.792,0 -3.246,1.448 -3.246,3.234 0,1.786 1.453,3.234 3.246,3.234 1.793,0 3.246,-1.448 3.246,-3.234 0,-1.786 -1.454,-3.234 -3.246,-3.234 z m 8.601,9.928 v 26.197 c 7.688,-1.301 14.788,-4.315 20.897,-8.632 l -18.588,-18.523 c -0.751,0.354 -1.52,0.677 -2.309,0.958 z m 15.432,-15.38 c -0.283,0.786 -0.602,1.556 -0.957,2.304 l 18.587,18.522 c 4.333,-6.087 7.355,-13.165 8.661,-20.826 z m -34.942,-31.563 c 0.751,-0.354 1.52,-0.677 2.309,-0.958 v -26.196 c -7.688,1.3 -14.789,4.314 -20.897,8.631 z m 10.909,-60.302 c -46.164,0 -83.587,37.293 -83.587,83.295 0,46.003 37.423,83.295 83.587,83.295 46.164,0 83.587,-37.292 83.587,-83.295 0,-46.002 -37.423,-83.295 -83.587,-83.295 z m 0,142.792 c -32.974,0 -59.705,-26.638 -59.705,-59.497 0,-32.858 26.73,-59.496 59.705,-59.496 32.975,0 59.705,26.638 59.705,59.496 0,32.859 -26.731,59.497 -59.705,59.497 z m -29.499,-17.981 c 6.108,4.317 13.21,7.33 20.898,8.631 v -26.196 c -0.79,-0.282 -1.56,-0.604 -2.311,-0.958 z M 231.7,388.305 c 0,-1.786 -1.453,-3.234 -3.246,-3.234 -1.793,0 -3.246,1.448 -3.246,3.234 0,1.786 1.453,3.234 3.246,3.234 1.793,0 3.246,-1.448 3.246,-3.234 z m 38.107,-8.57 h 26.29 c -1.305,-7.661 -4.329,-14.738 -8.662,-20.825 l -18.588,18.523 c 0.355,0.749 0.677,1.516 0.96,2.302 z m -24.034,-5.454 c 1.792,0 3.246,-1.448 3.246,-3.234 0,-1.786 -1.453,-3.234 -3.246,-3.234 -1.793,0 -3.246,1.448 -3.246,3.234 0,1.786 1.453,3.234 3.246,3.234 z m 14.073,14.024 c 0,1.786 1.453,3.234 3.246,3.234 1.793,0 3.246,-1.448 3.246,-3.234 0,-1.786 -1.453,-3.234 -3.246,-3.234 -1.793,0 -3.246,1.448 -3.246,3.234 z M 222.698,377.432 204.111,358.91 c -4.333,6.087 -7.355,13.165 -8.661,20.826 h 26.292 c 0.282,-0.787 0.6,-1.556 0.956,-2.304 z m 582.073,-1.63 h 26.289 c -1.305,-7.661 -4.329,-14.738 -8.662,-20.825 L 803.81,373.5 c 0.355,0.748 0.677,1.516 0.961,2.302 z M 221.739,396.876 H 195.45 c 1.305,7.661 4.328,14.738 8.661,20.825 l 18.588,-18.523 c -0.355,-0.748 -0.678,-1.516 -0.96,-2.302 z m 53.532,-50.087 c -6.108,-4.316 -13.21,-7.33 -20.897,-8.63 v 26.196 c 0.789,0.281 1.559,0.603 2.31,0.957 z m 514.066,61.533 v 26.197 c 7.688,-1.301 14.789,-4.315 20.897,-8.632 l -18.589,-18.523 c -0.75,0.355 -1.519,0.677 -2.308,0.958 z m 14.475,-13.076 18.588,18.522 c 4.333,-6.087 7.355,-13.165 8.66,-20.826 h -26.291 c -0.283,0.787 -0.602,1.556 -0.957,2.304 z m -23.076,-18.504 c -4.229,0 -7.657,3.416 -7.657,7.63 0,4.215 3.429,7.631 7.657,7.631 4.228,0 7.657,-3.416 7.657,-7.631 10e-4,-4.214 -3.428,-7.63 -7.657,-7.63 z m 0,21.653 c -1.793,0 -3.246,1.448 -3.246,3.234 0,1.786 1.453,3.234 3.246,3.234 1.792,0 3.245,-1.448 3.245,-3.234 0,-1.786 -1.453,-3.234 -3.245,-3.234 z M 70.867,311.436 c -0.022,0.005 -0.032,0.003 -0.056,0.009 0.024,0.139 0.043,0.128 0.056,-0.009 z m 871.12,21.139 c 1.476,-52.841 -33.835,-74.252 -32.12,-72.974 -8.865,-6.607 -20.691,-9.007 -32.965,-12.397 21.246,5.869 -30.112,-5.286 -143.693,-17.75 -2.16,-0.094 -4.32,-0.188 -6.48,-0.281 -25.268,-7.695 -26.194,-9.161 -34.373,-14.934 -7.901,-5.575 -15.815,-11.103 -23.667,-16.623 -16.431,-11.551 -33.65,-22.196 -50.716,-32.965 -6.355,-4.011 -12.967,-7.049 -19.44,-10.988 -6.073,-3.695 -18.995,-9.243 -20.005,-9.58 -0.63,-0.471 -0.686,-1.555 -1.127,-2.254 -2.403,-3.805 -5.806,-11.049 -12.115,-9.861 0,0.752 0,1.503 0,2.254 0.717,1.104 0.591,3.683 0.563,5.354 -8.246,-0.812 -24.794,-3.099 -24.794,-3.099 0,0 -28.024,-3.834 -62.808,-5.042 -56.897,-1.977 -131.883,-3.437 -131.883,-3.437 0,0 -72.152,1.84 -126.089,4.069 -32.192,1.331 -57.895,3.538 -57.895,3.538 0,0 -39.964,6.832 -38.318,6.224 -16.795,6.207 -4.993,7.6 -4.508,10.425 -9.25,9.972 -25.809,17.2 -47.053,80.018 -1.77,5.233 -1.238,11.699 -2.536,17.188 0,22.552 1.117,59.737 0.901,61.977 3.723,-0.819 -22.681,14.576 -9.917,58.612 1.274,4.397 7.411,17.749 10.153,14.138 -12.241,16.121 33.907,24.601 90.521,29.028 -2.35,-7.895 -3.617,-16.253 -3.617,-24.908 0,-48.303 39.294,-87.461 87.767,-87.461 48.473,0 87.767,39.158 87.767,87.461 0,10.371 -1.815,20.317 -5.14,29.548 1.244,-0.013 1.904,-0.021 1.904,-0.021 l 369.514,0.467 c -4.41,-10.433 -6.85,-21.896 -6.85,-33.927 0,-48.303 39.295,-87.461 87.768,-87.461 48.473,0 87.768,39.158 87.768,87.461 0,12.11 -2.471,23.645 -6.936,34.132 l 4.628,0.006 c 0,0 39.266,2.535 44.798,-12.115 1.754,-1.079 5.025,-0.462 7.044,-1.127 6.262,-2.064 16.019,-14.87 12.397,-12.679 7.087,-4.291 10.955,-38.623 11.552,-60.016 z M 296.494,162.476 250.005,228.077 c 0,0 16.138,0.282 -142.997,-0.146 13.339,-45.461 46.34,-70.351 46.34,-70.351 l 136.666,-8.005 c 0,0 7.981,-0.04 9.017,2.745 2.233,2.728 -2.537,10.156 -2.537,10.156 z m 41.136,68.26 c 0,0 -16.209,-4.755 -18.878,-13.115 -1.136,-3.561 -0.391,-8.308 0.521,-11.395 -0.005,0.007 0.008,-0.039 0.044,-0.157 -0.016,0.049 -0.029,0.107 -0.044,0.157 0.127,-0.175 13.628,-41.085 24.274,-50.31 13.686,-7.696 101.431,-1.69 101.431,-1.69 l 0.037,76.365 z m 282.033,-34.81 c 0,0.094 0,0.188 0,0.282 -0.094,0 -0.188,0 -0.281,0 -11.544,14.993 -0.563,38.317 -0.563,38.317 L 481.34,234.477 c 0,0 0.265,-75.625 0.265,-69.545 0.839,-3.864 0.624,-7.521 2.536,-10.143 1.871,-2.565 5.308,-2.26 8.734,-3.381 0.707,0.027 41.023,-0.88 62.831,6.198 13.517,4.389 66.706,40.13 63.957,38.32 z m 161.073,105.151 c -46.164,0 -83.587,37.293 -83.587,83.295 0,46.003 37.423,83.295 83.587,83.295 46.164,0 83.587,-37.292 83.587,-83.295 0,-46.002 -37.423,-83.295 -83.587,-83.295 z m 0,142.792 c -32.975,0 -59.705,-26.638 -59.705,-59.497 0,-32.858 26.73,-59.496 59.705,-59.496 32.974,0 59.705,26.638 59.705,59.496 0,32.859 -26.731,59.497 -59.705,59.497 z m 14.073,-59.498 c 0,1.786 1.453,3.234 3.246,3.234 1.792,0 3.245,-1.448 3.245,-3.234 0,-1.786 -1.453,-3.234 -3.245,-3.234 -1.793,0 -3.246,1.448 -3.246,3.234 z m -24.982,-22.99 c 0.751,-0.354 1.52,-0.678 2.309,-0.959 v -26.196 c -7.688,1.3 -14.788,4.314 -20.896,8.631 z m 10.909,8.967 c 1.792,0 3.245,-1.448 3.245,-3.234 0,-1.786 -1.453,-3.234 -3.245,-3.234 -1.793,0 -3.246,1.448 -3.246,3.234 0,1.786 1.453,3.234 3.246,3.234 z m 29.498,-27.492 c -6.107,-4.317 -13.21,-7.331 -20.897,-8.631 v 26.196 c 0.789,0.281 1.559,0.603 2.31,0.957 z m -52.573,30.642 -18.588,-18.522 c -4.333,6.087 -7.355,13.165 -8.66,20.826 h 26.291 c 0.283,-0.786 0.602,-1.556 0.957,-2.304 z m 9.002,10.873 c 0,-1.786 -1.453,-3.234 -3.245,-3.234 -1.793,0 -3.246,1.448 -3.246,3.234 0,1.786 1.453,3.234 3.246,3.234 1.792,0 3.245,-1.448 3.245,-3.234 z m -15.426,41.518 c 6.108,4.317 13.211,7.33 20.898,8.631 v -26.196 c -0.789,-0.282 -1.56,-0.604 -2.311,-0.958 z m 5.465,-32.947 h -26.289 c 1.305,7.661 4.328,14.738 8.661,20.825 l 18.589,-18.523 c -0.356,-0.748 -0.679,-1.515 -0.961,-2.302 z"
           inkscape:connector-curvature="0"
           style="fill:#808080" /></g></g></g><g
     style="overflow:visible;fill:#666666"
     id="g2187"
     transform="matrix(0.04357495,0,0,0.04961898,1.2333396,10.088239)"><g
       id="Shape_1-6"
       style="fill:#666666"><g
         id="g2174"
         style="fill:#666666"><path
           id="path2172"
           d="m 252.399,396.383 c -3.815,0 -6.907,3.092 -6.907,6.907 0,3.814 3.092,6.906 6.907,6.906 3.814,0 6.907,-3.092 6.907,-6.906 0,-3.815 -3.092,-6.907 -6.907,-6.907 z m 0,19.599 c -1.617,0 -2.927,1.312 -2.927,2.928 0,1.617 1.311,2.928 2.927,2.928 1.617,0 2.928,-1.311 2.928,-2.928 0,-1.616 -1.311,-2.928 -2.928,-2.928 z m 20.815,-2.85 16.767,16.768 c 3.909,-5.51 6.635,-11.917 7.812,-18.852 h -23.716 c -0.255,0.711 -0.542,1.407 -0.863,2.084 z m -13.056,11.838 v 23.713 c 6.935,-1.177 13.339,-3.906 18.85,-7.813 L 262.24,424.102 c -0.677,0.321 -1.371,0.613 -2.082,0.868 z m 13.054,-31.522 c 0.321,0.677 0.611,1.371 0.866,2.083 h 23.714 c -1.177,-6.935 -3.905,-13.341 -7.813,-18.851 z m -30.653,-10.97 c 0.677,-0.321 1.371,-0.613 2.082,-0.868 v -23.713 c -6.934,1.177 -13.339,3.905 -18.85,7.813 z m -16.768,58.392 c 5.51,3.908 11.916,6.636 18.851,7.813 V 424.97 c -0.712,-0.255 -1.406,-0.546 -2.084,-0.867 z m 39.302,-37.582 c 0,1.617 1.311,2.928 2.928,2.928 1.617,0 2.928,-1.311 2.928,-2.928 0,-1.616 -1.311,-2.927 -2.928,-2.927 -1.617,0 -2.928,1.311 -2.928,2.927 z m -25.388,0 c 0,-1.616 -1.311,-2.927 -2.928,-2.927 -1.617,0 -2.928,1.311 -2.928,2.927 0,1.617 1.311,2.928 2.928,2.928 1.617,0 2.928,-1.311 2.928,-2.928 z m 39.303,-37.579 c -5.51,-3.908 -11.916,-6.636 -18.85,-7.813 v 23.713 c 0.711,0.255 1.406,0.546 2.083,0.866 z m -26.609,24.886 c 1.617,0 2.928,-1.312 2.928,-2.928 0,-1.617 -1.311,-2.928 -2.928,-2.928 -1.617,0 -2.927,1.311 -2.927,2.928 0,1.616 1.31,2.928 2.927,2.928 z m 0,-62.704 c -41.642,0 -75.399,33.758 -75.399,75.399 0,41.641 33.757,75.398 75.399,75.398 41.641,0 75.398,-33.758 75.398,-75.398 10e-4,-41.642 -33.756,-75.399 -75.398,-75.399 z m 0,129.255 c -29.744,0 -53.856,-24.112 -53.856,-53.855 0,-29.744 24.112,-53.856 53.856,-53.856 29.744,0 53.855,24.112 53.855,53.856 10e-4,29.742 -24.111,53.855 -53.855,53.855 z M 230.72,411.048 h -23.714 c 1.177,6.935 3.904,13.341 7.813,18.851 l 16.768,-16.768 c -0.322,-0.678 -0.612,-1.372 -0.867,-2.083 z m 0.864,-17.602 -16.767,-16.767 c -3.909,5.51 -6.635,11.917 -7.812,18.852 h 23.715 c 0.257,-0.712 0.544,-1.408 0.864,-2.085 z m 564.758,2.937 c -3.814,0 -6.907,3.092 -6.907,6.907 0,3.814 3.093,6.906 6.907,6.906 3.814,0 6.907,-3.092 6.907,-6.906 0,-3.815 -3.093,-6.907 -6.907,-6.907 z m 7.758,28.587 v 23.713 c 6.935,-1.177 13.341,-3.904 18.851,-7.813 l -16.767,-16.768 c -0.678,0.322 -1.372,0.613 -2.084,0.868 z m 18.849,-59.26 c -5.51,-3.908 -11.915,-6.637 -18.85,-7.813 v 23.713 c 0.712,0.255 1.405,0.547 2.082,0.868 z m -5.794,47.421 16.767,16.768 c 3.909,-5.51 6.637,-11.916 7.813,-18.851 h -23.714 c -0.254,0.711 -0.545,1.405 -0.866,2.083 z m 123.497,-56.359 c -2.676,-7.189 -12.334,-4.557 -15.23,-9.139 16.59,-23.825 -2.443,-68.09 -0.763,-66.019 -6.258,-9.752 -20.398,-14.986 -31.526,-19.883 -15.559,-6.847 -32.441,-14.373 -49.348,-20.104 -9.293,-3.15 -17.867,-4.189 -27.416,-7.312 -10.953,-3.581 -20.769,-8.661 -21.522,-8.661 0.271,0.248 0.535,0.491 0.81,0.741 -0.73,-0.519 -0.969,-0.742 -0.81,-0.741 C 708.016,141.743 673.4,131.389 639.693,123.435 c -0.828,-0.195 -41.427,-2.437 -41.427,-2.437 0,0 -360.137,0.115 -463.016,0.115 -6.033,1.382 -12.471,5.415 -17.059,8.414 -8.871,5.8 -10.008,16.563 -14.012,27.415 -8.28,22.44 -29.782,81.431 -29.852,194.345 -0.002,2.757 -8.201,0.38 -9.748,3.046 -23.61,40.707 16.817,59.703 36.554,59.705 11.27,0 70.67,9.139 70.67,9.139 h 3.491 c -1.481,-6.054 -2.272,-12.377 -2.272,-18.887 0,-43.741 35.459,-79.2 79.2,-79.2 43.741,0 79.2,35.459 79.2,79.2 0,6.51 -0.791,12.833 -2.271,18.887 h 390.963 c -1.592,-6.234 -2.439,-12.766 -2.439,-19.496 0,-43.404 35.187,-78.591 78.591,-78.591 43.405,0 78.591,35.187 78.591,78.591 0,6.73 -0.848,13.262 -2.438,19.496 h 23.152 c 0,0 10.372,-5.148 12.794,-8.529 2.309,-3.224 1.834,-6.563 5.483,-8.529 16.377,-8.83 28.008,-8.8 28.024,-34.727 0.002,-4.778 0.789,-11.647 -1.22,-14.62 z M 704.551,210.925 c -2.555,3.881 -7.804,2.414 -7.921,29.852 -39.596,-0.405 -117.581,-1.218 -117.581,-1.218 0,0 -0.232,-92.826 -0.589,-94.435 -0.007,0.002 -0.014,0.003 -0.021,0.004 0.007,-0.036 0.014,-0.034 0.021,-0.004 17.021,-2.842 48.971,-4.055 71.26,1.222 57.918,16.805 79.257,52.489 91.784,67.757 -5.99,-0.092 -32.603,-4.203 -36.953,-3.178 z M 786.5,382.476 c 0.678,-0.32 1.372,-0.611 2.083,-0.866 v -23.713 c -6.935,1.177 -13.34,3.904 -18.85,7.813 z m 30.656,10.97 c 0.321,0.677 0.608,1.373 0.863,2.085 h 23.716 c -1.177,-6.935 -3.903,-13.342 -7.813,-18.852 z m -20.814,-65.555 c -41.642,0 -75.398,33.758 -75.398,75.399 0,41.641 33.757,75.398 75.398,75.398 41.641,0 75.398,-33.758 75.398,-75.398 0,-41.642 -33.757,-75.399 -75.398,-75.399 z m 0,129.255 c -29.744,0 -53.856,-24.112 -53.856,-53.855 0,-29.744 24.112,-53.856 53.856,-53.856 29.744,0 53.856,24.112 53.856,53.856 0,29.742 -24.112,53.855 -53.856,53.855 z m 0,-41.164 c -1.617,0 -2.928,1.312 -2.928,2.928 0,1.617 1.311,2.928 2.928,2.928 1.617,0 2.928,-1.311 2.928,-2.928 0,-1.616 -1.311,-2.928 -2.928,-2.928 z m -12.695,-12.694 c 0,-1.616 -1.311,-2.927 -2.928,-2.927 -1.616,0 -2.928,1.311 -2.928,2.927 0,1.617 1.312,2.928 2.928,2.928 1.618,0 2.928,-1.311 2.928,-2.928 z m -8.119,-9.84 -16.767,-16.768 c -3.908,5.51 -6.637,11.916 -7.813,18.851 h 23.714 c 0.255,-0.712 0.546,-1.406 0.866,-2.083 z m 33.508,9.84 c 0,1.617 1.311,2.928 2.928,2.928 1.616,0 2.928,-1.311 2.928,-2.928 0,-1.616 -1.312,-2.927 -2.928,-2.927 -1.617,0 -2.928,1.311 -2.928,2.927 z m -12.694,-12.693 c 1.617,0 2.928,-1.312 2.928,-2.928 0,-1.617 -1.311,-2.928 -2.928,-2.928 -1.617,0 -2.928,1.311 -2.928,2.928 0,1.616 1.311,2.928 2.928,2.928 z m -26.609,50.274 c 5.511,3.907 11.915,6.637 18.85,7.813 V 424.97 c -0.711,-0.255 -1.404,-0.547 -2.082,-0.868 z m 4.931,-29.821 h -23.716 c 1.177,6.935 3.903,13.342 7.812,18.852 l 16.768,-16.768 c -0.322,-0.677 -0.609,-1.373 -0.864,-2.084 z"
           inkscape:connector-curvature="0"
           style="fill:#666666" /></g></g></g></svg>