<?xml version="1.0" encoding="UTF-8" standalone="no"?>
<!-- Created with Inkscape (http://www.inkscape.org/) -->

<svg
   xmlns:osb="http://www.openswatchbook.org/uri/2009/osb"
   xmlns:dc="http://purl.org/dc/elements/1.1/"
   xmlns:cc="http://creativecommons.org/ns#"
   xmlns:rdf="http://www.w3.org/1999/02/22-rdf-syntax-ns#"
   xmlns:svg="http://www.w3.org/2000/svg"
   xmlns="http://www.w3.org/2000/svg"
   xmlns:sodipodi="http://sodipodi.sourceforge.net/DTD/sodipodi-0.dtd"
   xmlns:inkscape="http://www.inkscape.org/namespaces/inkscape"
   width="10mm"
   height="10mm"
   viewBox="0 0 10 10"
   version="1.1"
   id="svg8"
   inkscape:version="0.92.3 (2405546, 2018-03-11)"
   sodipodi:docname="favicon.svg">
  <defs
     id="defs2">
    <linearGradient
       id="linearGradient6149"
       osb:paint="solid">
      <stop
         style="stop-color:#000000;stop-opacity:1;"
         offset="0"
         id="stop6147" />
    </linearGradient>
  </defs>
  <sodipodi:namedview
     id="base"
     pagecolor="#ffffff"
     bordercolor="#666666"
     borderopacity="1.0"
     inkscape:pageopacity="0.0"
     inkscape:pageshadow="2"
     inkscape:zoom="3.6203867"
     inkscape:cx="109.94766"
     inkscape:cy="-24.325889"
     inkscape:document-units="mm"
     inkscape:current-layer="layer1"
     showgrid="false"
     inkscape:window-width="1366"
     inkscape:window-height="713"
     inkscape:window-x="0"
     inkscape:window-y="27"
     inkscape:window-maximized="1" />
  <metadata
     id="metadata5">
    <rdf:RDF>
      <cc:Work
         rdf:about="">
        <dc:format>image/svg+xml</dc:format>
        <dc:type
           rdf:resource="http://purl.org/dc/dcmitype/StillImage" />
        <dc:title></dc:title>
      </cc:Work>
    </rdf:RDF>
  </metadata>
  <g
     inkscape:label="Layer 1"
     id="layer1"
     transform="translate(0,-287)"
     style="display:inline"
     inkscape:groupmode="layer">
    <circle
       style="fill:#000000;stroke-width:1.00034702"
       id="path143"
       cx="5"
       cy="292"
       r="5" />
    <path
       id="path202"
       d="m 3.498027,288.5 c 1.103577,0 1.997987,0.96406 1.997987,2.15359 0,0.16488 -0.01715,0.32471 -0.04998,0.47866 L 8.5,294.42321 v 0.53839 L 8.000501,295.5 H 7.001504 l -0.499499,-0.5384 v -0.53839 H 6.002511 v -0.5384 H 5.503012 v -0.53839 H 4.504015 l -0.552574,-0.5956 c -0.145942,0.0362 -0.297353,0.0555 -0.453445,0.0555 -1.103586,0 -1.997996,-0.96406 -1.997996,-2.15359 0,-1.18951 0.895196,-2.15274 1.997996,-2.15274 z m 2.005015,3.76962 2.497488,2.69198 v -0.53839 l -2.497488,-2.69199 z m -2.497493,-1.61519 c 0.275506,0 0.499499,-0.24145 0.499499,-0.53839 0,-0.29697 -0.223993,-0.5384 -0.499499,-0.5384 -0.275506,0 -0.499499,0.24143 -0.499499,0.5384 0,0.29694 0.223993,0.53839 0.499499,0.53839 z"
       inkscape:connector-curvature="0"
       style="fill:#f2f2f2;stroke-width:0.00810286" />
  </g>
</svg>
